<svg width="48" height="48" viewBox="0 0 24 24" fill="none" xmlns="http://www.w3.org/2000/svg">
<path d="M20.585 9.18984L14.81 3.41484C14.6577 3.2625 14.4585 3.1875 14.2592 3.1875C14.06 3.1875 13.8608 3.2625 13.7085 3.41484L9.93268 7.19297C9.64674 7.16016 9.35846 7.14609 9.07018 7.14609C7.35455 7.14609 5.63893 7.71094 4.23033 8.84063C4.14503 8.90912 4.07512 8.99481 4.02515 9.09212C3.97517 9.18943 3.94626 9.29618 3.94029 9.40541C3.93432 9.51464 3.95143 9.6239 3.9905 9.72608C4.02957 9.82826 4.08973 9.92106 4.16705 9.99844L8.42565 14.257L3.37721 19.3008C3.31534 19.3623 3.27716 19.4436 3.2694 19.5305L3.18971 20.4023C3.16861 20.6227 3.3444 20.8102 3.56236 20.8102C3.57408 20.8102 3.5858 20.8102 3.59752 20.8078L4.4694 20.7281C4.55611 20.7211 4.63815 20.6813 4.69908 20.6203L9.74752 15.5719L14.0061 19.8305C14.1585 19.9828 14.3577 20.0578 14.5569 20.0578C14.7842 20.0578 15.0092 19.9594 15.1639 19.7672C16.4835 18.1195 17.0319 16.057 16.8092 14.0625L20.585 10.2867C20.8874 9.98672 20.8874 9.49453 20.585 9.18984ZM15.6139 12.8742L15.0397 13.4484L15.1288 14.2547C15.2684 15.5017 15.0196 16.7615 14.4163 17.8617L6.14049 9.58125C6.44283 9.41484 6.7569 9.27422 7.08502 9.16172C7.72252 8.94141 8.39049 8.83125 9.07018 8.83125C9.29518 8.83125 9.52252 8.84297 9.74752 8.86875L10.5538 8.95781L11.128 8.38359L14.2616 5.25L18.7499 9.73828L15.6139 12.8742Z" fill="black"/>
</svg>
