<svg width="48" height="48" viewBox="0 0 32 32" fill="none" xmlns="http://www.w3.org/2000/svg">
<path d="M25 26C25 26.2652 24.8946 26.5196 24.7071 26.7071C24.5196 26.8946 24.2652 27 24 27H8C7.73478 27 7.48043 26.8946 7.29289 26.7071C7.10536 26.5196 7 26.2652 7 26V5H17V3H5V26C5 26.7956 5.31607 27.5587 5.87868 28.1213C6.44129 28.6839 7.20435 29 8 29H24C24.7956 29 25.5587 28.6839 26.1213 28.1213C26.6839 27.5587 27 26.7956 27 26V13H25V26Z" fill="black"/>
<path d="M27.12 2.87996C26.5477 2.33696 25.7889 2.03424 25 2.03424C24.2111 2.03424 23.4523 2.33696 22.88 2.87996L17 8.74996L16 14.05L21.25 13L27.12 7.12996C27.3997 6.85125 27.6216 6.52007 27.773 6.15542C27.9244 5.79076 28.0024 5.39981 28.0024 5.00496C28.0024 4.61012 27.9244 4.21916 27.773 3.85451C27.6216 3.48985 27.3997 3.15867 27.12 2.87996ZM20.26 11.15L18.5 11.5L18.85 9.73996L22.17 6.40996L23.59 7.82996L20.26 11.15ZM25.71 5.70996L25 6.40996L23.59 4.99996L24.29 4.28996C24.383 4.19623 24.4936 4.12184 24.6154 4.07107C24.7373 4.0203 24.868 3.99416 25 3.99416C25.132 3.99416 25.2627 4.0203 25.3846 4.07107C25.5064 4.12184 25.617 4.19623 25.71 4.28996C25.8037 4.38293 25.8781 4.49353 25.9289 4.61539C25.9797 4.73725 26.0058 4.86795 26.0058 4.99996C26.0058 5.13197 25.9797 5.26268 25.9289 5.38454C25.8781 5.5064 25.8037 5.617 25.71 5.70996Z" fill="black"/>
</svg>
